<svg xmlns="http://www.w3.org/2000/svg" viewBox="0 0 64 64" fill="none">
  <defs>
    <linearGradient id="g" x1="8" y1="8" x2="56" y2="56" gradientUnits="userSpaceOnUse">
      <stop stop-color="#3B82F6"/>
      <stop offset="0.55" stop-color="#2563EB"/>
      <stop offset="1" stop-color="#E11D48"/>
    </linearGradient>
  </defs>
  <rect width="64" height="64" rx="16" fill="url(#g)"/>
  <path d="M18 40V24h8.2c4.4 0 7.1 2.2 7.1 5.7 0 2.4-1.3 4.2-3.5 5.1L36 40h-5.2l-5.1-4.7H23V40H18zm5-8.6h2.8c1.9 0 3-.8 3-2.2s-1.1-2.1-3-2.1H23v4.3zM38.5 40l6.2-16h5.1L56 40h-5.1l-1-2.8H44l-1 2.8h-4.5zm7.3-6.5h3.5l-1.7-4.9-1.8 4.9z" fill="white"/>
</svg>
